<svg xmlns="http://www.w3.org/2000/svg" version="1.1" xmlns:xlink="http://www.w3.org/1999/xlink" xmlns:svgjs="http://svgjs.com/svgjs" width="1000" height="1000"><rect width="1000" height="1000" rx="0" ry="0" fill="#202328"></rect><g transform="matrix(12.307692307692308,0,0,12.307692307692308,106.5584424779965,155.2941604027381)"><svg xmlns="http://www.w3.org/2000/svg" version="1.1" xmlns:xlink="http://www.w3.org/1999/xlink" xmlns:svgjs="http://svgjs.com/svgjs" width="65" height="56"><svg width="65" height="56" viewBox="0 0 65 56" fill="none" xmlns="http://www.w3.org/2000/svg">
<g clip-path="url(#clip0_5_1339)">
<path d="M23.712 20.904C23.616 20.744 23.28 20.504 22.704 20.184C22.128 19.832 21.408 19.464 20.544 19.08C19.68 18.696 18.736 18.36 17.712 18.072C16.688 17.784 15.664 17.64 14.64 17.64C13.296 17.64 12.256 17.88 11.52 18.36C10.784 18.808 10.416 19.512 10.416 20.472C10.416 21.24 10.688 21.848 11.232 22.296C11.808 22.744 12.624 23.144 13.68 23.496C14.736 23.816 16.032 24.2 17.568 24.648C19.744 25.224 21.632 25.928 23.232 26.76C24.832 27.56 26.048 28.6 26.88 29.88C27.744 31.16 28.176 32.856 28.176 34.968C28.176 36.888 27.824 38.52 27.12 39.864C26.416 41.176 25.456 42.248 24.24 43.08C23.056 43.88 21.696 44.472 20.16 44.856C18.624 45.208 17.04 45.384 15.408 45.384C13.744 45.384 12.032 45.224 10.272 44.904C8.544 44.552 6.88 44.072 5.28 43.464C3.68 42.824 2.208 42.056 0.864 41.16L4.32 34.296C4.448 34.456 4.864 34.76 5.568 35.208C6.272 35.624 7.136 36.072 8.16 36.552C9.216 37 10.384 37.4 11.664 37.752C12.944 38.104 14.24 38.28 15.552 38.28C16.96 38.28 18 38.056 18.672 37.608C19.376 37.16 19.728 36.536 19.728 35.736C19.728 34.872 19.36 34.2 18.624 33.72C17.92 33.24 16.944 32.808 15.696 32.424C14.48 32.04 13.072 31.608 11.472 31.128C9.392 30.488 7.664 29.768 6.288 28.968C4.944 28.168 3.936 27.192 3.264 26.04C2.624 24.888 2.304 23.448 2.304 21.72C2.304 19.32 2.864 17.304 3.984 15.672C5.136 14.008 6.672 12.76 8.592 11.928C10.512 11.064 12.608 10.632 14.88 10.632C16.48 10.632 18.016 10.824 19.488 11.208C20.992 11.592 22.384 12.072 23.664 12.648C24.976 13.224 26.144 13.8 27.168 14.376L23.712 20.904Z" fill="#EE5533"></path>
<path d="M33.264 45V10.92H45.984C49.728 10.92 52.848 11.688 55.344 13.224C57.872 14.728 59.776 16.776 61.056 19.368C62.336 21.928 62.976 24.776 62.976 27.912C62.976 31.368 62.272 34.376 60.864 36.936C59.456 39.496 57.472 41.48 54.912 42.888C52.384 44.296 49.408 45 45.984 45H33.264ZM54.96 27.912C54.96 25.928 54.608 24.184 53.904 22.68C53.2 21.144 52.176 19.96 50.832 19.128C49.488 18.264 47.872 17.832 45.984 17.832H41.136V38.088H45.984C47.904 38.088 49.52 37.656 50.832 36.792C52.176 35.896 53.2 34.68 53.904 33.144C54.608 31.576 54.96 29.832 54.96 27.912Z" fill="#F79122"></path>
</g>
<defs>
<clipPath id="clip0_5_1339">
<rect width="65" height="56" fill="white"></rect>
</clipPath>
</defs>
</svg></svg></g></svg>