<svg width="378" height="56" viewBox="0 0 378 56" fill="none" xmlns="http://www.w3.org/2000/svg">
<g clip-path="url(#clip0_5_1339)">
<path d="M23.712 20.904C23.616 20.744 23.28 20.504 22.704 20.184C22.128 19.832 21.408 19.464 20.544 19.08C19.68 18.696 18.736 18.36 17.712 18.072C16.688 17.784 15.664 17.64 14.64 17.64C13.296 17.64 12.256 17.88 11.52 18.36C10.784 18.808 10.416 19.512 10.416 20.472C10.416 21.24 10.688 21.848 11.232 22.296C11.808 22.744 12.624 23.144 13.68 23.496C14.736 23.816 16.032 24.2 17.568 24.648C19.744 25.224 21.632 25.928 23.232 26.76C24.832 27.56 26.048 28.6 26.88 29.88C27.744 31.16 28.176 32.856 28.176 34.968C28.176 36.888 27.824 38.52 27.12 39.864C26.416 41.176 25.456 42.248 24.24 43.08C23.056 43.88 21.696 44.472 20.16 44.856C18.624 45.208 17.04 45.384 15.408 45.384C13.744 45.384 12.032 45.224 10.272 44.904C8.544 44.552 6.88 44.072 5.28 43.464C3.68 42.824 2.208 42.056 0.864 41.16L4.32 34.296C4.448 34.456 4.864 34.76 5.568 35.208C6.272 35.624 7.136 36.072 8.16 36.552C9.216 37 10.384 37.4 11.664 37.752C12.944 38.104 14.24 38.28 15.552 38.28C16.96 38.28 18 38.056 18.672 37.608C19.376 37.16 19.728 36.536 19.728 35.736C19.728 34.872 19.36 34.2 18.624 33.72C17.92 33.24 16.944 32.808 15.696 32.424C14.48 32.04 13.072 31.608 11.472 31.128C9.392 30.488 7.664 29.768 6.288 28.968C4.944 28.168 3.936 27.192 3.264 26.04C2.624 24.888 2.304 23.448 2.304 21.72C2.304 19.32 2.864 17.304 3.984 15.672C5.136 14.008 6.672 12.76 8.592 11.928C10.512 11.064 12.608 10.632 14.88 10.632C16.48 10.632 18.016 10.824 19.488 11.208C20.992 11.592 22.384 12.072 23.664 12.648C24.976 13.224 26.144 13.8 27.168 14.376L23.712 20.904ZM47.835 43.656C47.131 43.944 46.347 44.232 45.483 44.52C44.651 44.808 43.771 45.032 42.843 45.192C41.915 45.384 41.003 45.48 40.107 45.48C38.827 45.48 37.643 45.272 36.555 44.856C35.499 44.408 34.651 43.688 34.011 42.696C33.403 41.704 33.099 40.392 33.099 38.76V25.608H29.883V19.8H33.099V11.784H40.779V19.8H45.915V25.608H40.779V36.12C40.779 36.952 40.987 37.56 41.403 37.944C41.819 38.296 42.347 38.472 42.987 38.472C43.531 38.472 44.107 38.376 44.715 38.184C45.355 37.992 45.899 37.784 46.347 37.56L47.835 43.656ZM49.2435 37.464C49.2435 35.8 49.7075 34.344 50.6355 33.096C51.5635 31.848 52.8435 30.872 54.4755 30.168C56.1075 29.432 57.9795 29.064 60.0915 29.064C61.1155 29.064 62.1235 29.16 63.1155 29.352C64.1075 29.512 64.9715 29.752 65.7075 30.072V28.968C65.7075 27.592 65.2915 26.536 64.4595 25.8C63.6275 25.064 62.3635 24.696 60.6675 24.696C59.2595 24.696 57.9315 24.936 56.6835 25.416C55.4675 25.896 54.1715 26.584 52.7955 27.48L50.4915 22.584C52.1555 21.496 53.8835 20.68 55.6755 20.136C57.4995 19.592 59.4195 19.32 61.4355 19.32C65.2115 19.32 68.1395 20.232 70.2195 22.056C72.3315 23.848 73.3875 26.456 73.3875 29.88V36.456C73.3875 37.224 73.4995 37.768 73.7235 38.088C73.9795 38.376 74.4115 38.552 75.0195 38.616V45C74.3795 45.128 73.7715 45.224 73.1955 45.288C72.6515 45.352 72.1715 45.384 71.7555 45.384C70.3155 45.384 69.2115 45.096 68.4435 44.52C67.7075 43.944 67.2435 43.16 67.0515 42.168L66.9075 41.064C65.7875 42.504 64.4435 43.608 62.8755 44.376C61.3395 45.112 59.7235 45.48 58.0275 45.48C56.3635 45.48 54.8595 45.128 53.5155 44.424C52.2035 43.72 51.1635 42.76 50.3955 41.544C49.6275 40.328 49.2435 38.968 49.2435 37.464ZM64.5075 38.424C64.8595 38.136 65.1475 37.816 65.3715 37.464C65.5955 37.112 65.7075 36.776 65.7075 36.456V34.2C65.0675 33.944 64.3475 33.752 63.5475 33.624C62.7795 33.464 62.0595 33.384 61.3875 33.384C59.9795 33.384 58.8115 33.704 57.8835 34.344C56.9555 34.952 56.4915 35.768 56.4915 36.792C56.4915 37.368 56.6515 37.896 56.9715 38.376C57.2915 38.856 57.7235 39.24 58.2675 39.528C58.8435 39.816 59.5155 39.96 60.2835 39.96C61.0515 39.96 61.8195 39.816 62.5875 39.528C63.3555 39.24 63.9955 38.872 64.5075 38.424ZM95.0381 43.656C94.3341 43.944 93.5501 44.232 92.6861 44.52C91.8541 44.808 90.9741 45.032 90.0461 45.192C89.1181 45.384 88.2061 45.48 87.3101 45.48C86.0301 45.48 84.8461 45.272 83.7581 44.856C82.7021 44.408 81.8541 43.688 81.2141 42.696C80.6061 41.704 80.3021 40.392 80.3021 38.76V25.608H77.0861V19.8H80.3021V11.784H87.9821V19.8H93.1181V25.608H87.9821V36.12C87.9821 36.952 88.1901 37.56 88.6061 37.944C89.0221 38.296 89.5501 38.472 90.1901 38.472C90.7341 38.472 91.3101 38.376 91.9181 38.184C92.5581 37.992 93.1021 37.784 93.5501 37.56L95.0381 43.656ZM98.0306 45V19.8H105.711V45H98.0306ZM98.0306 16.92V9.96H105.711V16.92H98.0306ZM120.616 45.48C118.472 45.48 116.376 45.128 114.328 44.424C112.28 43.72 110.552 42.68 109.144 41.304L111.784 36.456C113.32 37.576 114.808 38.424 116.248 39C117.72 39.576 119.096 39.864 120.376 39.864C121.368 39.864 122.136 39.704 122.68 39.384C123.224 39.064 123.496 38.568 123.496 37.896C123.496 37.416 123.336 37.048 123.016 36.792C122.696 36.504 122.2 36.248 121.528 36.024C120.888 35.8 120.088 35.56 119.128 35.304C117.208 34.664 115.608 34.04 114.328 33.432C113.048 32.824 112.088 32.088 111.448 31.224C110.808 30.328 110.488 29.176 110.488 27.768C110.488 26.072 110.904 24.6 111.736 23.352C112.6 22.072 113.816 21.08 115.384 20.376C116.952 19.672 118.824 19.32 121 19.32C122.728 19.32 124.408 19.592 126.04 20.136C127.704 20.68 129.256 21.592 130.696 22.872L127.72 27.672C126.28 26.68 125 25.96 123.88 25.512C122.76 25.064 121.672 24.84 120.616 24.84C120.072 24.84 119.576 24.904 119.128 25.032C118.68 25.16 118.312 25.384 118.024 25.704C117.768 25.992 117.64 26.376 117.64 26.856C117.64 27.336 117.768 27.72 118.024 28.008C118.312 28.296 118.744 28.552 119.32 28.776C119.928 28.968 120.68 29.208 121.576 29.496C123.656 30.104 125.384 30.728 126.76 31.368C128.136 31.976 129.16 32.744 129.832 33.672C130.536 34.568 130.888 35.768 130.888 37.272C130.888 39.832 129.96 41.848 128.104 43.32C126.28 44.76 123.784 45.48 120.616 45.48ZM150.96 43.656C150.256 43.944 149.472 44.232 148.608 44.52C147.776 44.808 146.896 45.032 145.968 45.192C145.04 45.384 144.128 45.48 143.232 45.48C141.952 45.48 140.768 45.272 139.68 44.856C138.624 44.408 137.776 43.688 137.136 42.696C136.528 41.704 136.224 40.392 136.224 38.76V25.608H133.008V19.8H136.224V11.784H143.904V19.8H149.04V25.608H143.904V36.12C143.904 36.952 144.112 37.56 144.528 37.944C144.944 38.296 145.472 38.472 146.112 38.472C146.656 38.472 147.232 38.376 147.84 38.184C148.48 37.992 149.024 37.784 149.472 37.56L150.96 43.656ZM153.953 45V19.8H161.633V45H153.953ZM153.953 16.92V9.96H161.633V16.92H153.953ZM178.938 45.48C176.794 45.48 174.89 45.128 173.226 44.424C171.562 43.72 170.138 42.76 168.954 41.544C167.802 40.328 166.922 38.936 166.314 37.368C165.706 35.8 165.402 34.136 165.402 32.376C165.402 30.072 165.93 27.928 166.986 25.944C168.074 23.96 169.626 22.36 171.642 21.144C173.658 19.928 176.09 19.32 178.938 19.32C181.818 19.32 184.25 19.944 186.234 21.192C188.25 22.408 189.754 24.008 190.746 25.992L183.258 28.248C182.778 27.48 182.154 26.888 181.386 26.472C180.65 26.056 179.818 25.848 178.89 25.848C177.834 25.848 176.874 26.12 176.01 26.664C175.178 27.208 174.506 27.96 173.994 28.92C173.514 29.88 173.274 31.032 173.274 32.376C173.274 33.688 173.53 34.84 174.042 35.832C174.554 36.824 175.226 37.608 176.058 38.184C176.89 38.728 177.834 39 178.89 39C179.53 39 180.122 38.904 180.666 38.712C181.242 38.488 181.754 38.184 182.202 37.8C182.682 37.416 183.05 36.984 183.306 36.504L190.794 38.808C190.186 40.088 189.306 41.24 188.154 42.264C187.034 43.256 185.706 44.04 184.17 44.616C182.634 45.192 180.89 45.48 178.938 45.48ZM194.025 35.928V19.8H201.705V34.248C201.705 35.784 202.009 36.968 202.617 37.8C203.225 38.6 204.089 39 205.209 39C205.913 39 206.585 38.888 207.225 38.664C207.865 38.408 208.489 38.008 209.097 37.464C209.705 36.92 210.249 36.216 210.729 35.352V19.8H218.409V36.456C218.409 37.224 218.521 37.768 218.745 38.088C219.001 38.376 219.433 38.552 220.041 38.616V45C219.337 45.128 218.713 45.224 218.169 45.288C217.657 45.352 217.193 45.384 216.777 45.384C215.433 45.384 214.361 45.112 213.561 44.568C212.761 43.992 212.265 43.192 212.073 42.168L211.929 40.632C210.777 42.296 209.337 43.528 207.609 44.328C205.913 45.096 204.009 45.48 201.897 45.48C199.337 45.48 197.385 44.664 196.041 43.032C194.697 41.4 194.025 39.032 194.025 35.928ZM264.199 45H256.519V30.84C256.519 29.208 256.215 28.008 255.607 27.24C254.999 26.472 254.215 26.088 253.255 26.088C252.231 26.088 251.223 26.504 250.231 27.336C249.239 28.168 248.535 29.24 248.119 30.552V45H240.439V30.84C240.439 29.176 240.135 27.976 239.527 27.24C238.919 26.472 238.135 26.088 237.175 26.088C236.183 26.088 235.191 26.504 234.199 27.336C233.207 28.168 232.487 29.24 232.039 30.552V45H224.359V19.8H231.271V24.024C232.199 22.52 233.447 21.368 235.015 20.568C236.615 19.736 238.471 19.32 240.583 19.32C242.663 19.32 244.263 19.816 245.383 20.808C246.503 21.768 247.223 22.904 247.543 24.216C248.503 22.648 249.767 21.448 251.335 20.616C252.935 19.752 254.727 19.32 256.711 19.32C258.311 19.32 259.607 19.624 260.599 20.232C261.591 20.808 262.343 21.576 262.855 22.536C263.367 23.496 263.719 24.536 263.911 25.656C264.103 26.744 264.199 27.816 264.199 28.872V45Z" fill="#EE5533"/>
<path d="M270.264 45V10.92H282.984C286.728 10.92 289.848 11.688 292.344 13.224C294.872 14.728 296.776 16.776 298.056 19.368C299.336 21.928 299.976 24.776 299.976 27.912C299.976 31.368 299.272 34.376 297.864 36.936C296.456 39.496 294.472 41.48 291.912 42.888C289.384 44.296 286.408 45 282.984 45H270.264ZM291.96 27.912C291.96 25.928 291.608 24.184 290.904 22.68C290.2 21.144 289.176 19.96 287.832 19.128C286.488 18.264 284.872 17.832 282.984 17.832H278.136V38.088H282.984C284.904 38.088 286.52 37.656 287.832 36.792C289.176 35.896 290.2 34.68 290.904 33.144C291.608 31.576 291.96 29.832 291.96 27.912ZM302.087 37.464C302.087 35.8 302.551 34.344 303.479 33.096C304.407 31.848 305.687 30.872 307.319 30.168C308.951 29.432 310.823 29.064 312.935 29.064C313.959 29.064 314.967 29.16 315.959 29.352C316.951 29.512 317.815 29.752 318.551 30.072V28.968C318.551 27.592 318.135 26.536 317.303 25.8C316.471 25.064 315.207 24.696 313.511 24.696C312.103 24.696 310.775 24.936 309.527 25.416C308.311 25.896 307.015 26.584 305.639 27.48L303.335 22.584C304.999 21.496 306.727 20.68 308.519 20.136C310.343 19.592 312.263 19.32 314.279 19.32C318.055 19.32 320.983 20.232 323.063 22.056C325.175 23.848 326.231 26.456 326.231 29.88V36.456C326.231 37.224 326.343 37.768 326.567 38.088C326.823 38.376 327.255 38.552 327.863 38.616V45C327.223 45.128 326.615 45.224 326.039 45.288C325.495 45.352 325.015 45.384 324.599 45.384C323.159 45.384 322.055 45.096 321.287 44.52C320.551 43.944 320.087 43.16 319.895 42.168L319.751 41.064C318.631 42.504 317.287 43.608 315.719 44.376C314.183 45.112 312.567 45.48 310.871 45.48C309.207 45.48 307.703 45.128 306.359 44.424C305.047 43.72 304.007 42.76 303.239 41.544C302.471 40.328 302.087 38.968 302.087 37.464ZM317.351 38.424C317.703 38.136 317.991 37.816 318.215 37.464C318.439 37.112 318.551 36.776 318.551 36.456V34.2C317.911 33.944 317.191 33.752 316.391 33.624C315.623 33.464 314.903 33.384 314.231 33.384C312.823 33.384 311.655 33.704 310.727 34.344C309.799 34.952 309.335 35.768 309.335 36.792C309.335 37.368 309.495 37.896 309.815 38.376C310.135 38.856 310.567 39.24 311.111 39.528C311.687 39.816 312.359 39.96 313.127 39.96C313.895 39.96 314.663 39.816 315.431 39.528C316.199 39.24 316.839 38.872 317.351 38.424ZM347.78 26.376C345.924 26.376 344.244 26.68 342.74 27.288C341.236 27.864 340.148 28.728 339.476 29.88V45H331.796V19.8H338.852V24.888C339.716 23.192 340.836 21.864 342.212 20.904C343.588 19.944 345.028 19.448 346.532 19.416C346.884 19.416 347.14 19.416 347.3 19.416C347.492 19.416 347.652 19.432 347.78 19.464V26.376ZM362.876 45.48C360.732 45.48 358.828 45.144 357.164 44.472C355.5 43.768 354.076 42.824 352.892 41.64C351.74 40.456 350.86 39.096 350.252 37.56C349.644 35.992 349.34 34.36 349.34 32.664C349.34 30.232 349.868 28.024 350.924 26.04C352.012 24.024 353.564 22.408 355.58 21.192C357.596 19.944 360.028 19.32 362.876 19.32C365.724 19.32 368.14 19.928 370.124 21.144C372.14 22.36 373.676 23.96 374.732 25.944C375.788 27.896 376.316 30.024 376.316 32.328C376.316 32.776 376.284 33.224 376.22 33.672C376.188 34.088 376.156 34.456 376.124 34.776H357.5C357.596 35.896 357.9 36.84 358.412 37.608C358.956 38.376 359.644 38.968 360.476 39.384C361.308 39.768 362.188 39.96 363.116 39.96C364.268 39.96 365.34 39.688 366.332 39.144C367.356 38.6 368.06 37.864 368.444 36.936L374.972 38.76C374.332 40.072 373.42 41.24 372.236 42.264C371.084 43.256 369.708 44.04 368.108 44.616C366.54 45.192 364.796 45.48 362.876 45.48ZM357.308 30.072H368.252C368.124 29.016 367.82 28.104 367.34 27.336C366.86 26.536 366.22 25.928 365.42 25.512C364.62 25.064 363.74 24.84 362.78 24.84C361.788 24.84 360.892 25.064 360.092 25.512C359.324 25.928 358.7 26.536 358.22 27.336C357.74 28.104 357.436 29.016 357.308 30.072Z" fill="#F79122"/>
</g>
<defs>
<clipPath id="clip0_5_1339">
<rect width="378" height="56" fill="white"/>
</clipPath>
</defs>
</svg>
